<?xml version="1.0" encoding="utf-8" standalone="no"?>
<!DOCTYPE svg PUBLIC "-//W3C//DTD SVG 1.1//EN"
  "http://www.w3.org/Graphics/SVG/1.1/DTD/svg11.dtd">
<svg xmlns:xlink="http://www.w3.org/1999/xlink" width="720pt" height="432pt" viewBox="0 0 720 432" xmlns="http://www.w3.org/2000/svg" version="1.1">
 <metadata>
  <rdf:RDF xmlns:dc="http://purl.org/dc/elements/1.1/" xmlns:cc="http://creativecommons.org/ns#" xmlns:rdf="http://www.w3.org/1999/02/22-rdf-syntax-ns#">
   <cc:Work>
    <dc:type rdf:resource="http://purl.org/dc/dcmitype/StillImage"/>
    <dc:date>2023-12-02T17:29:26.526357</dc:date>
    <dc:format>image/svg+xml</dc:format>
    <dc:creator>
     <cc:Agent>
      <dc:title>Matplotlib v3.5.1, https://matplotlib.org/</dc:title>
     </cc:Agent>
    </dc:creator>
   </cc:Work>
  </rdf:RDF>
 </metadata>
 <defs>
  <style type="text/css">*{stroke-linejoin: round; stroke-linecap: butt}</style>
 </defs>
 <g id="figure_1">
  <g id="patch_1">
   <path d="M 0 432 
L 720 432 
L 720 0 
L 0 0 
z
" style="fill: #ffffff"/>
  </g>
  <g id="axes_1">
   <g id="patch_2">
    <path d="M 57.44 254.512572 
L 709.2 254.512572 
L 709.2 25.44 
L 57.44 25.44 
z
" style="fill: #ffffff"/>
   </g>
   <g id="patch_3">
    <path d="M 87.065455 254.512572 
L 156.772406 254.512572 
L 156.772406 36.348218 
L 87.065455 36.348218 
z
" clip-path="url(#p6f467a1b4d)" style="fill: #0b1b56"/>
   </g>
   <g id="patch_4">
    <path d="M 174.199144 254.512572 
L 243.906096 254.512572 
L 243.906096 148.438706 
L 174.199144 148.438706 
z
" clip-path="url(#p6f467a1b4d)" style="fill: #0b1b56"/>
   </g>
   <g id="patch_5">
    <path d="M 261.332834 254.512572 
L 331.039786 254.512572 
L 331.039786 149.015642 
L 261.332834 149.015642 
z
" clip-path="url(#p6f467a1b4d)" style="fill: #0b1b56"/>
   </g>
   <g id="patch_6">
    <path d="M 348.466524 254.512572 
L 418.173476 254.512572 
L 418.173476 195.335388 
L 348.466524 195.335388 
z
" clip-path="url(#p6f467a1b4d)" style="fill: #0b1b56"/>
   </g>
   <g id="patch_7">
    <path d="M 435.600214 254.512572 
L 505.307166 254.512572 
L 505.307166 207.53347 
L 435.600214 207.53347 
z
" clip-path="url(#p6f467a1b4d)" style="fill: #0b1b56"/>
   </g>
   <g id="patch_8">
    <path d="M 522.733904 254.512572 
L 592.440856 254.512572 
L 592.440856 246.682721 
L 522.733904 246.682721 
z
" clip-path="url(#p6f467a1b4d)" style="fill: #0b1b56"/>
   </g>
   <g id="patch_9">
    <path d="M 609.867594 254.512572 
L 679.574545 254.512572 
L 679.574545 248.083852 
L 609.867594 248.083852 
z
" clip-path="url(#p6f467a1b4d)" style="fill: #0b1b56"/>
   </g>
   <g id="matplotlib.axis_1">
    <g id="xtick_1">
     <g id="line2d_1">
      <defs>
       <path id="m11b6758acc" d="M 0 0 
L 0 3.5 
" style="stroke: #000000; stroke-width: 0.8"/>
      </defs>
      <g>
       <use xlink:href="#m11b6758acc" x="121.91893" y="254.512572" style="stroke: #000000; stroke-width: 0.8"/>
      </g>
     </g>
     <g id="text_1">
      <!-- Information Technology -->
      <g transform="translate(37.659424 349.674424)rotate(-45)scale(0.1 -0.1)">
       <defs>
        <path id="DejaVuSans-49" d="M 628 4666 
L 1259 4666 
L 1259 0 
L 628 0 
L 628 4666 
z
" transform="scale(0.015625)"/>
        <path id="DejaVuSans-6e" d="M 3513 2113 
L 3513 0 
L 2938 0 
L 2938 2094 
Q 2938 2591 2744 2837 
Q 2550 3084 2163 3084 
Q 1697 3084 1428 2787 
Q 1159 2491 1159 1978 
L 1159 0 
L 581 0 
L 581 3500 
L 1159 3500 
L 1159 2956 
Q 1366 3272 1645 3428 
Q 1925 3584 2291 3584 
Q 2894 3584 3203 3211 
Q 3513 2838 3513 2113 
z
" transform="scale(0.015625)"/>
        <path id="DejaVuSans-66" d="M 2375 4863 
L 2375 4384 
L 1825 4384 
Q 1516 4384 1395 4259 
Q 1275 4134 1275 3809 
L 1275 3500 
L 2222 3500 
L 2222 3053 
L 1275 3053 
L 1275 0 
L 697 0 
L 697 3053 
L 147 3053 
L 147 3500 
L 697 3500 
L 697 3744 
Q 697 4328 969 4595 
Q 1241 4863 1831 4863 
L 2375 4863 
z
" transform="scale(0.015625)"/>
        <path id="DejaVuSans-6f" d="M 1959 3097 
Q 1497 3097 1228 2736 
Q 959 2375 959 1747 
Q 959 1119 1226 758 
Q 1494 397 1959 397 
Q 2419 397 2687 759 
Q 2956 1122 2956 1747 
Q 2956 2369 2687 2733 
Q 2419 3097 1959 3097 
z
M 1959 3584 
Q 2709 3584 3137 3096 
Q 3566 2609 3566 1747 
Q 3566 888 3137 398 
Q 2709 -91 1959 -91 
Q 1206 -91 779 398 
Q 353 888 353 1747 
Q 353 2609 779 3096 
Q 1206 3584 1959 3584 
z
" transform="scale(0.015625)"/>
        <path id="DejaVuSans-72" d="M 2631 2963 
Q 2534 3019 2420 3045 
Q 2306 3072 2169 3072 
Q 1681 3072 1420 2755 
Q 1159 2438 1159 1844 
L 1159 0 
L 581 0 
L 581 3500 
L 1159 3500 
L 1159 2956 
Q 1341 3275 1631 3429 
Q 1922 3584 2338 3584 
Q 2397 3584 2469 3576 
Q 2541 3569 2628 3553 
L 2631 2963 
z
" transform="scale(0.015625)"/>
        <path id="DejaVuSans-6d" d="M 3328 2828 
Q 3544 3216 3844 3400 
Q 4144 3584 4550 3584 
Q 5097 3584 5394 3201 
Q 5691 2819 5691 2113 
L 5691 0 
L 5113 0 
L 5113 2094 
Q 5113 2597 4934 2840 
Q 4756 3084 4391 3084 
Q 3944 3084 3684 2787 
Q 3425 2491 3425 1978 
L 3425 0 
L 2847 0 
L 2847 2094 
Q 2847 2600 2669 2842 
Q 2491 3084 2119 3084 
Q 1678 3084 1418 2786 
Q 1159 2488 1159 1978 
L 1159 0 
L 581 0 
L 581 3500 
L 1159 3500 
L 1159 2956 
Q 1356 3278 1631 3431 
Q 1906 3584 2284 3584 
Q 2666 3584 2933 3390 
Q 3200 3197 3328 2828 
z
" transform="scale(0.015625)"/>
        <path id="DejaVuSans-61" d="M 2194 1759 
Q 1497 1759 1228 1600 
Q 959 1441 959 1056 
Q 959 750 1161 570 
Q 1363 391 1709 391 
Q 2188 391 2477 730 
Q 2766 1069 2766 1631 
L 2766 1759 
L 2194 1759 
z
M 3341 1997 
L 3341 0 
L 2766 0 
L 2766 531 
Q 2569 213 2275 61 
Q 1981 -91 1556 -91 
Q 1019 -91 701 211 
Q 384 513 384 1019 
Q 384 1609 779 1909 
Q 1175 2209 1959 2209 
L 2766 2209 
L 2766 2266 
Q 2766 2663 2505 2880 
Q 2244 3097 1772 3097 
Q 1472 3097 1187 3025 
Q 903 2953 641 2809 
L 641 3341 
Q 956 3463 1253 3523 
Q 1550 3584 1831 3584 
Q 2591 3584 2966 3190 
Q 3341 2797 3341 1997 
z
" transform="scale(0.015625)"/>
        <path id="DejaVuSans-74" d="M 1172 4494 
L 1172 3500 
L 2356 3500 
L 2356 3053 
L 1172 3053 
L 1172 1153 
Q 1172 725 1289 603 
Q 1406 481 1766 481 
L 2356 481 
L 2356 0 
L 1766 0 
Q 1100 0 847 248 
Q 594 497 594 1153 
L 594 3053 
L 172 3053 
L 172 3500 
L 594 3500 
L 594 4494 
L 1172 4494 
z
" transform="scale(0.015625)"/>
        <path id="DejaVuSans-69" d="M 603 3500 
L 1178 3500 
L 1178 0 
L 603 0 
L 603 3500 
z
M 603 4863 
L 1178 4863 
L 1178 4134 
L 603 4134 
L 603 4863 
z
" transform="scale(0.015625)"/>
        <path id="DejaVuSans-20" transform="scale(0.015625)"/>
        <path id="DejaVuSans-54" d="M -19 4666 
L 3928 4666 
L 3928 4134 
L 2272 4134 
L 2272 0 
L 1638 0 
L 1638 4134 
L -19 4134 
L -19 4666 
z
" transform="scale(0.015625)"/>
        <path id="DejaVuSans-65" d="M 3597 1894 
L 3597 1613 
L 953 1613 
Q 991 1019 1311 708 
Q 1631 397 2203 397 
Q 2534 397 2845 478 
Q 3156 559 3463 722 
L 3463 178 
Q 3153 47 2828 -22 
Q 2503 -91 2169 -91 
Q 1331 -91 842 396 
Q 353 884 353 1716 
Q 353 2575 817 3079 
Q 1281 3584 2069 3584 
Q 2775 3584 3186 3129 
Q 3597 2675 3597 1894 
z
M 3022 2063 
Q 3016 2534 2758 2815 
Q 2500 3097 2075 3097 
Q 1594 3097 1305 2825 
Q 1016 2553 972 2059 
L 3022 2063 
z
" transform="scale(0.015625)"/>
        <path id="DejaVuSans-63" d="M 3122 3366 
L 3122 2828 
Q 2878 2963 2633 3030 
Q 2388 3097 2138 3097 
Q 1578 3097 1268 2742 
Q 959 2388 959 1747 
Q 959 1106 1268 751 
Q 1578 397 2138 397 
Q 2388 397 2633 464 
Q 2878 531 3122 666 
L 3122 134 
Q 2881 22 2623 -34 
Q 2366 -91 2075 -91 
Q 1284 -91 818 406 
Q 353 903 353 1747 
Q 353 2603 823 3093 
Q 1294 3584 2113 3584 
Q 2378 3584 2631 3529 
Q 2884 3475 3122 3366 
z
" transform="scale(0.015625)"/>
        <path id="DejaVuSans-68" d="M 3513 2113 
L 3513 0 
L 2938 0 
L 2938 2094 
Q 2938 2591 2744 2837 
Q 2550 3084 2163 3084 
Q 1697 3084 1428 2787 
Q 1159 2491 1159 1978 
L 1159 0 
L 581 0 
L 581 4863 
L 1159 4863 
L 1159 2956 
Q 1366 3272 1645 3428 
Q 1925 3584 2291 3584 
Q 2894 3584 3203 3211 
Q 3513 2838 3513 2113 
z
" transform="scale(0.015625)"/>
        <path id="DejaVuSans-6c" d="M 603 4863 
L 1178 4863 
L 1178 0 
L 603 0 
L 603 4863 
z
" transform="scale(0.015625)"/>
        <path id="DejaVuSans-67" d="M 2906 1791 
Q 2906 2416 2648 2759 
Q 2391 3103 1925 3103 
Q 1463 3103 1205 2759 
Q 947 2416 947 1791 
Q 947 1169 1205 825 
Q 1463 481 1925 481 
Q 2391 481 2648 825 
Q 2906 1169 2906 1791 
z
M 3481 434 
Q 3481 -459 3084 -895 
Q 2688 -1331 1869 -1331 
Q 1566 -1331 1297 -1286 
Q 1028 -1241 775 -1147 
L 775 -588 
Q 1028 -725 1275 -790 
Q 1522 -856 1778 -856 
Q 2344 -856 2625 -561 
Q 2906 -266 2906 331 
L 2906 616 
Q 2728 306 2450 153 
Q 2172 0 1784 0 
Q 1141 0 747 490 
Q 353 981 353 1791 
Q 353 2603 747 3093 
Q 1141 3584 1784 3584 
Q 2172 3584 2450 3431 
Q 2728 3278 2906 2969 
L 2906 3500 
L 3481 3500 
L 3481 434 
z
" transform="scale(0.015625)"/>
        <path id="DejaVuSans-79" d="M 2059 -325 
Q 1816 -950 1584 -1140 
Q 1353 -1331 966 -1331 
L 506 -1331 
L 506 -850 
L 844 -850 
Q 1081 -850 1212 -737 
Q 1344 -625 1503 -206 
L 1606 56 
L 191 3500 
L 800 3500 
L 1894 763 
L 2988 3500 
L 3597 3500 
L 2059 -325 
z
" transform="scale(0.015625)"/>
       </defs>
       <use xlink:href="#DejaVuSans-49"/>
       <use xlink:href="#DejaVuSans-6e" x="29.492188"/>
       <use xlink:href="#DejaVuSans-66" x="92.871094"/>
       <use xlink:href="#DejaVuSans-6f" x="128.076172"/>
       <use xlink:href="#DejaVuSans-72" x="189.257812"/>
       <use xlink:href="#DejaVuSans-6d" x="228.621094"/>
       <use xlink:href="#DejaVuSans-61" x="326.033203"/>
       <use xlink:href="#DejaVuSans-74" x="387.3125"/>
       <use xlink:href="#DejaVuSans-69" x="426.521484"/>
       <use xlink:href="#DejaVuSans-6f" x="454.304688"/>
       <use xlink:href="#DejaVuSans-6e" x="515.486328"/>
       <use xlink:href="#DejaVuSans-20" x="578.865234"/>
       <use xlink:href="#DejaVuSans-54" x="610.652344"/>
       <use xlink:href="#DejaVuSans-65" x="654.736328"/>
       <use xlink:href="#DejaVuSans-63" x="716.259766"/>
       <use xlink:href="#DejaVuSans-68" x="771.240234"/>
       <use xlink:href="#DejaVuSans-6e" x="834.619141"/>
       <use xlink:href="#DejaVuSans-6f" x="897.998047"/>
       <use xlink:href="#DejaVuSans-6c" x="959.179688"/>
       <use xlink:href="#DejaVuSans-6f" x="986.962891"/>
       <use xlink:href="#DejaVuSans-67" x="1048.144531"/>
       <use xlink:href="#DejaVuSans-79" x="1111.621094"/>
      </g>
     </g>
    </g>
    <g id="xtick_2">
     <g id="line2d_2">
      <g>
       <use xlink:href="#m11b6758acc" x="209.05262" y="254.512572" style="stroke: #000000; stroke-width: 0.8"/>
      </g>
     </g>
     <g id="text_2">
      <!-- Financial Services -->
      <g transform="translate(144.551224 329.916314)rotate(-45)scale(0.1 -0.1)">
       <defs>
        <path id="DejaVuSans-46" d="M 628 4666 
L 3309 4666 
L 3309 4134 
L 1259 4134 
L 1259 2759 
L 3109 2759 
L 3109 2228 
L 1259 2228 
L 1259 0 
L 628 0 
L 628 4666 
z
" transform="scale(0.015625)"/>
        <path id="DejaVuSans-53" d="M 3425 4513 
L 3425 3897 
Q 3066 4069 2747 4153 
Q 2428 4238 2131 4238 
Q 1616 4238 1336 4038 
Q 1056 3838 1056 3469 
Q 1056 3159 1242 3001 
Q 1428 2844 1947 2747 
L 2328 2669 
Q 3034 2534 3370 2195 
Q 3706 1856 3706 1288 
Q 3706 609 3251 259 
Q 2797 -91 1919 -91 
Q 1588 -91 1214 -16 
Q 841 59 441 206 
L 441 856 
Q 825 641 1194 531 
Q 1563 422 1919 422 
Q 2459 422 2753 634 
Q 3047 847 3047 1241 
Q 3047 1584 2836 1778 
Q 2625 1972 2144 2069 
L 1759 2144 
Q 1053 2284 737 2584 
Q 422 2884 422 3419 
Q 422 4038 858 4394 
Q 1294 4750 2059 4750 
Q 2388 4750 2728 4690 
Q 3069 4631 3425 4513 
z
" transform="scale(0.015625)"/>
        <path id="DejaVuSans-76" d="M 191 3500 
L 800 3500 
L 1894 563 
L 2988 3500 
L 3597 3500 
L 2284 0 
L 1503 0 
L 191 3500 
z
" transform="scale(0.015625)"/>
        <path id="DejaVuSans-73" d="M 2834 3397 
L 2834 2853 
Q 2591 2978 2328 3040 
Q 2066 3103 1784 3103 
Q 1356 3103 1142 2972 
Q 928 2841 928 2578 
Q 928 2378 1081 2264 
Q 1234 2150 1697 2047 
L 1894 2003 
Q 2506 1872 2764 1633 
Q 3022 1394 3022 966 
Q 3022 478 2636 193 
Q 2250 -91 1575 -91 
Q 1294 -91 989 -36 
Q 684 19 347 128 
L 347 722 
Q 666 556 975 473 
Q 1284 391 1588 391 
Q 1994 391 2212 530 
Q 2431 669 2431 922 
Q 2431 1156 2273 1281 
Q 2116 1406 1581 1522 
L 1381 1569 
Q 847 1681 609 1914 
Q 372 2147 372 2553 
Q 372 3047 722 3315 
Q 1072 3584 1716 3584 
Q 2034 3584 2315 3537 
Q 2597 3491 2834 3397 
z
" transform="scale(0.015625)"/>
       </defs>
       <use xlink:href="#DejaVuSans-46"/>
       <use xlink:href="#DejaVuSans-69" x="50.269531"/>
       <use xlink:href="#DejaVuSans-6e" x="78.052734"/>
       <use xlink:href="#DejaVuSans-61" x="141.431641"/>
       <use xlink:href="#DejaVuSans-6e" x="202.710938"/>
       <use xlink:href="#DejaVuSans-63" x="266.089844"/>
       <use xlink:href="#DejaVuSans-69" x="321.070312"/>
       <use xlink:href="#DejaVuSans-61" x="348.853516"/>
       <use xlink:href="#DejaVuSans-6c" x="410.132812"/>
       <use xlink:href="#DejaVuSans-20" x="437.916016"/>
       <use xlink:href="#DejaVuSans-53" x="469.703125"/>
       <use xlink:href="#DejaVuSans-65" x="533.179688"/>
       <use xlink:href="#DejaVuSans-72" x="594.703125"/>
       <use xlink:href="#DejaVuSans-76" x="635.816406"/>
       <use xlink:href="#DejaVuSans-69" x="694.996094"/>
       <use xlink:href="#DejaVuSans-63" x="722.779297"/>
       <use xlink:href="#DejaVuSans-65" x="777.759766"/>
       <use xlink:href="#DejaVuSans-73" x="839.283203"/>
      </g>
     </g>
    </g>
    <g id="xtick_3">
     <g id="line2d_3">
      <g>
       <use xlink:href="#m11b6758acc" x="296.18631" y="254.512572" style="stroke: #000000; stroke-width: 0.8"/>
      </g>
     </g>
     <g id="text_3">
      <!-- Consumer Products and Services (B2C) -->
      <g transform="translate(156.214523 405.386705)rotate(-45)scale(0.1 -0.1)">
       <defs>
        <path id="DejaVuSans-43" d="M 4122 4306 
L 4122 3641 
Q 3803 3938 3442 4084 
Q 3081 4231 2675 4231 
Q 1875 4231 1450 3742 
Q 1025 3253 1025 2328 
Q 1025 1406 1450 917 
Q 1875 428 2675 428 
Q 3081 428 3442 575 
Q 3803 722 4122 1019 
L 4122 359 
Q 3791 134 3420 21 
Q 3050 -91 2638 -91 
Q 1578 -91 968 557 
Q 359 1206 359 2328 
Q 359 3453 968 4101 
Q 1578 4750 2638 4750 
Q 3056 4750 3426 4639 
Q 3797 4528 4122 4306 
z
" transform="scale(0.015625)"/>
        <path id="DejaVuSans-75" d="M 544 1381 
L 544 3500 
L 1119 3500 
L 1119 1403 
Q 1119 906 1312 657 
Q 1506 409 1894 409 
Q 2359 409 2629 706 
Q 2900 1003 2900 1516 
L 2900 3500 
L 3475 3500 
L 3475 0 
L 2900 0 
L 2900 538 
Q 2691 219 2414 64 
Q 2138 -91 1772 -91 
Q 1169 -91 856 284 
Q 544 659 544 1381 
z
M 1991 3584 
L 1991 3584 
z
" transform="scale(0.015625)"/>
        <path id="DejaVuSans-50" d="M 1259 4147 
L 1259 2394 
L 2053 2394 
Q 2494 2394 2734 2622 
Q 2975 2850 2975 3272 
Q 2975 3691 2734 3919 
Q 2494 4147 2053 4147 
L 1259 4147 
z
M 628 4666 
L 2053 4666 
Q 2838 4666 3239 4311 
Q 3641 3956 3641 3272 
Q 3641 2581 3239 2228 
Q 2838 1875 2053 1875 
L 1259 1875 
L 1259 0 
L 628 0 
L 628 4666 
z
" transform="scale(0.015625)"/>
        <path id="DejaVuSans-64" d="M 2906 2969 
L 2906 4863 
L 3481 4863 
L 3481 0 
L 2906 0 
L 2906 525 
Q 2725 213 2448 61 
Q 2172 -91 1784 -91 
Q 1150 -91 751 415 
Q 353 922 353 1747 
Q 353 2572 751 3078 
Q 1150 3584 1784 3584 
Q 2172 3584 2448 3432 
Q 2725 3281 2906 2969 
z
M 947 1747 
Q 947 1113 1208 752 
Q 1469 391 1925 391 
Q 2381 391 2643 752 
Q 2906 1113 2906 1747 
Q 2906 2381 2643 2742 
Q 2381 3103 1925 3103 
Q 1469 3103 1208 2742 
Q 947 2381 947 1747 
z
" transform="scale(0.015625)"/>
        <path id="DejaVuSans-28" d="M 1984 4856 
Q 1566 4138 1362 3434 
Q 1159 2731 1159 2009 
Q 1159 1288 1364 580 
Q 1569 -128 1984 -844 
L 1484 -844 
Q 1016 -109 783 600 
Q 550 1309 550 2009 
Q 550 2706 781 3412 
Q 1013 4119 1484 4856 
L 1984 4856 
z
" transform="scale(0.015625)"/>
        <path id="DejaVuSans-42" d="M 1259 2228 
L 1259 519 
L 2272 519 
Q 2781 519 3026 730 
Q 3272 941 3272 1375 
Q 3272 1813 3026 2020 
Q 2781 2228 2272 2228 
L 1259 2228 
z
M 1259 4147 
L 1259 2741 
L 2194 2741 
Q 2656 2741 2882 2914 
Q 3109 3088 3109 3444 
Q 3109 3797 2882 3972 
Q 2656 4147 2194 4147 
L 1259 4147 
z
M 628 4666 
L 2241 4666 
Q 2963 4666 3353 4366 
Q 3744 4066 3744 3513 
Q 3744 3084 3544 2831 
Q 3344 2578 2956 2516 
Q 3422 2416 3680 2098 
Q 3938 1781 3938 1306 
Q 3938 681 3513 340 
Q 3088 0 2303 0 
L 628 0 
L 628 4666 
z
" transform="scale(0.015625)"/>
        <path id="DejaVuSans-32" d="M 1228 531 
L 3431 531 
L 3431 0 
L 469 0 
L 469 531 
Q 828 903 1448 1529 
Q 2069 2156 2228 2338 
Q 2531 2678 2651 2914 
Q 2772 3150 2772 3378 
Q 2772 3750 2511 3984 
Q 2250 4219 1831 4219 
Q 1534 4219 1204 4116 
Q 875 4013 500 3803 
L 500 4441 
Q 881 4594 1212 4672 
Q 1544 4750 1819 4750 
Q 2544 4750 2975 4387 
Q 3406 4025 3406 3419 
Q 3406 3131 3298 2873 
Q 3191 2616 2906 2266 
Q 2828 2175 2409 1742 
Q 1991 1309 1228 531 
z
" transform="scale(0.015625)"/>
        <path id="DejaVuSans-29" d="M 513 4856 
L 1013 4856 
Q 1481 4119 1714 3412 
Q 1947 2706 1947 2009 
Q 1947 1309 1714 600 
Q 1481 -109 1013 -844 
L 513 -844 
Q 928 -128 1133 580 
Q 1338 1288 1338 2009 
Q 1338 2731 1133 3434 
Q 928 4138 513 4856 
z
" transform="scale(0.015625)"/>
       </defs>
       <use xlink:href="#DejaVuSans-43"/>
       <use xlink:href="#DejaVuSans-6f" x="69.824219"/>
       <use xlink:href="#DejaVuSans-6e" x="131.005859"/>
       <use xlink:href="#DejaVuSans-73" x="194.384766"/>
       <use xlink:href="#DejaVuSans-75" x="246.484375"/>
       <use xlink:href="#DejaVuSans-6d" x="309.863281"/>
       <use xlink:href="#DejaVuSans-65" x="407.275391"/>
       <use xlink:href="#DejaVuSans-72" x="468.798828"/>
       <use xlink:href="#DejaVuSans-20" x="509.912109"/>
       <use xlink:href="#DejaVuSans-50" x="541.699219"/>
       <use xlink:href="#DejaVuSans-72" x="600.251953"/>
       <use xlink:href="#DejaVuSans-6f" x="639.115234"/>
       <use xlink:href="#DejaVuSans-64" x="700.296875"/>
       <use xlink:href="#DejaVuSans-75" x="763.773438"/>
       <use xlink:href="#DejaVuSans-63" x="827.152344"/>
       <use xlink:href="#DejaVuSans-74" x="882.132812"/>
       <use xlink:href="#DejaVuSans-73" x="921.341797"/>
       <use xlink:href="#DejaVuSans-20" x="973.441406"/>
       <use xlink:href="#DejaVuSans-61" x="1005.228516"/>
       <use xlink:href="#DejaVuSans-6e" x="1066.507812"/>
       <use xlink:href="#DejaVuSans-64" x="1129.886719"/>
       <use xlink:href="#DejaVuSans-20" x="1193.363281"/>
       <use xlink:href="#DejaVuSans-53" x="1225.150391"/>
       <use xlink:href="#DejaVuSans-65" x="1288.626953"/>
       <use xlink:href="#DejaVuSans-72" x="1350.150391"/>
       <use xlink:href="#DejaVuSans-76" x="1391.263672"/>
       <use xlink:href="#DejaVuSans-69" x="1450.443359"/>
       <use xlink:href="#DejaVuSans-63" x="1478.226562"/>
       <use xlink:href="#DejaVuSans-65" x="1533.207031"/>
       <use xlink:href="#DejaVuSans-73" x="1594.730469"/>
       <use xlink:href="#DejaVuSans-20" x="1646.830078"/>
       <use xlink:href="#DejaVuSans-28" x="1678.617188"/>
       <use xlink:href="#DejaVuSans-42" x="1717.630859"/>
       <use xlink:href="#DejaVuSans-32" x="1786.234375"/>
       <use xlink:href="#DejaVuSans-43" x="1849.857422"/>
       <use xlink:href="#DejaVuSans-29" x="1919.681641"/>
      </g>
     </g>
    </g>
    <g id="xtick_4">
     <g id="line2d_4">
      <g>
       <use xlink:href="#m11b6758acc" x="383.32" y="254.512572" style="stroke: #000000; stroke-width: 0.8"/>
      </g>
     </g>
     <g id="text_4">
      <!-- Healthcare -->
      <g transform="translate(343.30991 305.425008)rotate(-45)scale(0.1 -0.1)">
       <defs>
        <path id="DejaVuSans-48" d="M 628 4666 
L 1259 4666 
L 1259 2753 
L 3553 2753 
L 3553 4666 
L 4184 4666 
L 4184 0 
L 3553 0 
L 3553 2222 
L 1259 2222 
L 1259 0 
L 628 0 
L 628 4666 
z
" transform="scale(0.015625)"/>
       </defs>
       <use xlink:href="#DejaVuSans-48"/>
       <use xlink:href="#DejaVuSans-65" x="75.195312"/>
       <use xlink:href="#DejaVuSans-61" x="136.71875"/>
       <use xlink:href="#DejaVuSans-6c" x="197.998047"/>
       <use xlink:href="#DejaVuSans-74" x="225.78125"/>
       <use xlink:href="#DejaVuSans-68" x="264.990234"/>
       <use xlink:href="#DejaVuSans-63" x="328.369141"/>
       <use xlink:href="#DejaVuSans-61" x="383.349609"/>
       <use xlink:href="#DejaVuSans-72" x="444.628906"/>
       <use xlink:href="#DejaVuSans-65" x="483.492188"/>
      </g>
     </g>
    </g>
    <g id="xtick_5">
     <g id="line2d_5">
      <g>
       <use xlink:href="#m11b6758acc" x="470.45369" y="254.512572" style="stroke: #000000; stroke-width: 0.8"/>
      </g>
     </g>
     <g id="text_5">
      <!-- Business Products and Services (B2B) -->
      <g transform="translate(335.443803 400.424804)rotate(-45)scale(0.1 -0.1)">
       <use xlink:href="#DejaVuSans-42"/>
       <use xlink:href="#DejaVuSans-75" x="68.603516"/>
       <use xlink:href="#DejaVuSans-73" x="131.982422"/>
       <use xlink:href="#DejaVuSans-69" x="184.082031"/>
       <use xlink:href="#DejaVuSans-6e" x="211.865234"/>
       <use xlink:href="#DejaVuSans-65" x="275.244141"/>
       <use xlink:href="#DejaVuSans-73" x="336.767578"/>
       <use xlink:href="#DejaVuSans-73" x="388.867188"/>
       <use xlink:href="#DejaVuSans-20" x="440.966797"/>
       <use xlink:href="#DejaVuSans-50" x="472.753906"/>
       <use xlink:href="#DejaVuSans-72" x="531.306641"/>
       <use xlink:href="#DejaVuSans-6f" x="570.169922"/>
       <use xlink:href="#DejaVuSans-64" x="631.351562"/>
       <use xlink:href="#DejaVuSans-75" x="694.828125"/>
       <use xlink:href="#DejaVuSans-63" x="758.207031"/>
       <use xlink:href="#DejaVuSans-74" x="813.1875"/>
       <use xlink:href="#DejaVuSans-73" x="852.396484"/>
       <use xlink:href="#DejaVuSans-20" x="904.496094"/>
       <use xlink:href="#DejaVuSans-61" x="936.283203"/>
       <use xlink:href="#DejaVuSans-6e" x="997.5625"/>
       <use xlink:href="#DejaVuSans-64" x="1060.941406"/>
       <use xlink:href="#DejaVuSans-20" x="1124.417969"/>
       <use xlink:href="#DejaVuSans-53" x="1156.205078"/>
       <use xlink:href="#DejaVuSans-65" x="1219.681641"/>
       <use xlink:href="#DejaVuSans-72" x="1281.205078"/>
       <use xlink:href="#DejaVuSans-76" x="1322.318359"/>
       <use xlink:href="#DejaVuSans-69" x="1381.498047"/>
       <use xlink:href="#DejaVuSans-63" x="1409.28125"/>
       <use xlink:href="#DejaVuSans-65" x="1464.261719"/>
       <use xlink:href="#DejaVuSans-73" x="1525.785156"/>
       <use xlink:href="#DejaVuSans-20" x="1577.884766"/>
       <use xlink:href="#DejaVuSans-28" x="1609.671875"/>
       <use xlink:href="#DejaVuSans-42" x="1648.685547"/>
       <use xlink:href="#DejaVuSans-32" x="1717.289062"/>
       <use xlink:href="#DejaVuSans-42" x="1780.912109"/>
       <use xlink:href="#DejaVuSans-29" x="1849.515625"/>
      </g>
     </g>
    </g>
    <g id="xtick_6">
     <g id="line2d_6">
      <g>
       <use xlink:href="#m11b6758acc" x="557.58738" y="254.512572" style="stroke: #000000; stroke-width: 0.8"/>
      </g>
     </g>
     <g id="text_6">
      <!-- Energy -->
      <g transform="translate(531.359242 291.643054)rotate(-45)scale(0.1 -0.1)">
       <defs>
        <path id="DejaVuSans-45" d="M 628 4666 
L 3578 4666 
L 3578 4134 
L 1259 4134 
L 1259 2753 
L 3481 2753 
L 3481 2222 
L 1259 2222 
L 1259 531 
L 3634 531 
L 3634 0 
L 628 0 
L 628 4666 
z
" transform="scale(0.015625)"/>
       </defs>
       <use xlink:href="#DejaVuSans-45"/>
       <use xlink:href="#DejaVuSans-6e" x="63.183594"/>
       <use xlink:href="#DejaVuSans-65" x="126.5625"/>
       <use xlink:href="#DejaVuSans-72" x="188.085938"/>
       <use xlink:href="#DejaVuSans-67" x="227.449219"/>
       <use xlink:href="#DejaVuSans-79" x="290.925781"/>
      </g>
     </g>
    </g>
    <g id="xtick_7">
     <g id="line2d_7">
      <g>
       <use xlink:href="#m11b6758acc" x="644.72107" y="254.512572" style="stroke: #000000; stroke-width: 0.8"/>
      </g>
     </g>
     <g id="text_7">
      <!-- Materials and Resources -->
      <g transform="translate(556.934867 353.201119)rotate(-45)scale(0.1 -0.1)">
       <defs>
        <path id="DejaVuSans-4d" d="M 628 4666 
L 1569 4666 
L 2759 1491 
L 3956 4666 
L 4897 4666 
L 4897 0 
L 4281 0 
L 4281 4097 
L 3078 897 
L 2444 897 
L 1241 4097 
L 1241 0 
L 628 0 
L 628 4666 
z
" transform="scale(0.015625)"/>
        <path id="DejaVuSans-52" d="M 2841 2188 
Q 3044 2119 3236 1894 
Q 3428 1669 3622 1275 
L 4263 0 
L 3584 0 
L 2988 1197 
Q 2756 1666 2539 1819 
Q 2322 1972 1947 1972 
L 1259 1972 
L 1259 0 
L 628 0 
L 628 4666 
L 2053 4666 
Q 2853 4666 3247 4331 
Q 3641 3997 3641 3322 
Q 3641 2881 3436 2590 
Q 3231 2300 2841 2188 
z
M 1259 4147 
L 1259 2491 
L 2053 2491 
Q 2509 2491 2742 2702 
Q 2975 2913 2975 3322 
Q 2975 3731 2742 3939 
Q 2509 4147 2053 4147 
L 1259 4147 
z
" transform="scale(0.015625)"/>
       </defs>
       <use xlink:href="#DejaVuSans-4d"/>
       <use xlink:href="#DejaVuSans-61" x="86.279297"/>
       <use xlink:href="#DejaVuSans-74" x="147.558594"/>
       <use xlink:href="#DejaVuSans-65" x="186.767578"/>
       <use xlink:href="#DejaVuSans-72" x="248.291016"/>
       <use xlink:href="#DejaVuSans-69" x="289.404297"/>
       <use xlink:href="#DejaVuSans-61" x="317.1875"/>
       <use xlink:href="#DejaVuSans-6c" x="378.466797"/>
       <use xlink:href="#DejaVuSans-73" x="406.25"/>
       <use xlink:href="#DejaVuSans-20" x="458.349609"/>
       <use xlink:href="#DejaVuSans-61" x="490.136719"/>
       <use xlink:href="#DejaVuSans-6e" x="551.416016"/>
       <use xlink:href="#DejaVuSans-64" x="614.794922"/>
       <use xlink:href="#DejaVuSans-20" x="678.271484"/>
       <use xlink:href="#DejaVuSans-52" x="710.058594"/>
       <use xlink:href="#DejaVuSans-65" x="775.041016"/>
       <use xlink:href="#DejaVuSans-73" x="836.564453"/>
       <use xlink:href="#DejaVuSans-6f" x="888.664062"/>
       <use xlink:href="#DejaVuSans-75" x="949.845703"/>
       <use xlink:href="#DejaVuSans-72" x="1013.224609"/>
       <use xlink:href="#DejaVuSans-63" x="1052.087891"/>
       <use xlink:href="#DejaVuSans-65" x="1107.068359"/>
       <use xlink:href="#DejaVuSans-73" x="1168.591797"/>
      </g>
     </g>
    </g>
    <g id="text_8">
     <!-- PrimaryIndustrySector -->
     <g transform="translate(327.3575 418.455703)scale(0.1 -0.1)">
      <use xlink:href="#DejaVuSans-50"/>
      <use xlink:href="#DejaVuSans-72" x="58.552734"/>
      <use xlink:href="#DejaVuSans-69" x="99.666016"/>
      <use xlink:href="#DejaVuSans-6d" x="127.449219"/>
      <use xlink:href="#DejaVuSans-61" x="224.861328"/>
      <use xlink:href="#DejaVuSans-72" x="286.140625"/>
      <use xlink:href="#DejaVuSans-79" x="327.253906"/>
      <use xlink:href="#DejaVuSans-49" x="386.433594"/>
      <use xlink:href="#DejaVuSans-6e" x="415.925781"/>
      <use xlink:href="#DejaVuSans-64" x="479.304688"/>
      <use xlink:href="#DejaVuSans-75" x="542.78125"/>
      <use xlink:href="#DejaVuSans-73" x="606.160156"/>
      <use xlink:href="#DejaVuSans-74" x="658.259766"/>
      <use xlink:href="#DejaVuSans-72" x="697.46875"/>
      <use xlink:href="#DejaVuSans-79" x="738.582031"/>
      <use xlink:href="#DejaVuSans-53" x="797.761719"/>
      <use xlink:href="#DejaVuSans-65" x="861.238281"/>
      <use xlink:href="#DejaVuSans-63" x="922.761719"/>
      <use xlink:href="#DejaVuSans-74" x="977.742188"/>
      <use xlink:href="#DejaVuSans-6f" x="1016.951172"/>
      <use xlink:href="#DejaVuSans-72" x="1078.132812"/>
     </g>
    </g>
   </g>
   <g id="matplotlib.axis_2">
    <g id="ytick_1">
     <g id="line2d_8">
      <defs>
       <path id="m2711052284" d="M 0 0 
L -3.5 0 
" style="stroke: #000000; stroke-width: 0.8"/>
      </defs>
      <g>
       <use xlink:href="#m2711052284" x="57.44" y="254.512572" style="stroke: #000000; stroke-width: 0.8"/>
      </g>
     </g>
     <g id="text_9">
      <!-- 0 -->
      <g transform="translate(44.0775 258.31179)scale(0.1 -0.1)">
       <defs>
        <path id="DejaVuSans-30" d="M 2034 4250 
Q 1547 4250 1301 3770 
Q 1056 3291 1056 2328 
Q 1056 1369 1301 889 
Q 1547 409 2034 409 
Q 2525 409 2770 889 
Q 3016 1369 3016 2328 
Q 3016 3291 2770 3770 
Q 2525 4250 2034 4250 
z
M 2034 4750 
Q 2819 4750 3233 4129 
Q 3647 3509 3647 2328 
Q 3647 1150 3233 529 
Q 2819 -91 2034 -91 
Q 1250 -91 836 529 
Q 422 1150 422 2328 
Q 422 3509 836 4129 
Q 1250 4750 2034 4750 
z
" transform="scale(0.015625)"/>
       </defs>
       <use xlink:href="#DejaVuSans-30"/>
      </g>
     </g>
    </g>
    <g id="ytick_2">
     <g id="line2d_9">
      <g>
       <use xlink:href="#m2711052284" x="57.44" y="213.302833" style="stroke: #000000; stroke-width: 0.8"/>
      </g>
     </g>
     <g id="text_10">
      <!-- 500 -->
      <g transform="translate(31.3525 217.102052)scale(0.1 -0.1)">
       <defs>
        <path id="DejaVuSans-35" d="M 691 4666 
L 3169 4666 
L 3169 4134 
L 1269 4134 
L 1269 2991 
Q 1406 3038 1543 3061 
Q 1681 3084 1819 3084 
Q 2600 3084 3056 2656 
Q 3513 2228 3513 1497 
Q 3513 744 3044 326 
Q 2575 -91 1722 -91 
Q 1428 -91 1123 -41 
Q 819 9 494 109 
L 494 744 
Q 775 591 1075 516 
Q 1375 441 1709 441 
Q 2250 441 2565 725 
Q 2881 1009 2881 1497 
Q 2881 1984 2565 2268 
Q 2250 2553 1709 2553 
Q 1456 2553 1204 2497 
Q 953 2441 691 2322 
L 691 4666 
z
" transform="scale(0.015625)"/>
       </defs>
       <use xlink:href="#DejaVuSans-35"/>
       <use xlink:href="#DejaVuSans-30" x="63.623047"/>
       <use xlink:href="#DejaVuSans-30" x="127.246094"/>
      </g>
     </g>
    </g>
    <g id="ytick_3">
     <g id="line2d_10">
      <g>
       <use xlink:href="#m2711052284" x="57.44" y="172.093095" style="stroke: #000000; stroke-width: 0.8"/>
      </g>
     </g>
     <g id="text_11">
      <!-- 1000 -->
      <g transform="translate(24.99 175.892314)scale(0.1 -0.1)">
       <defs>
        <path id="DejaVuSans-31" d="M 794 531 
L 1825 531 
L 1825 4091 
L 703 3866 
L 703 4441 
L 1819 4666 
L 2450 4666 
L 2450 531 
L 3481 531 
L 3481 0 
L 794 0 
L 794 531 
z
" transform="scale(0.015625)"/>
       </defs>
       <use xlink:href="#DejaVuSans-31"/>
       <use xlink:href="#DejaVuSans-30" x="63.623047"/>
       <use xlink:href="#DejaVuSans-30" x="127.246094"/>
       <use xlink:href="#DejaVuSans-30" x="190.869141"/>
      </g>
     </g>
    </g>
    <g id="ytick_4">
     <g id="line2d_11">
      <g>
       <use xlink:href="#m2711052284" x="57.44" y="130.883357" style="stroke: #000000; stroke-width: 0.8"/>
      </g>
     </g>
     <g id="text_12">
      <!-- 1500 -->
      <g transform="translate(24.99 134.682576)scale(0.1 -0.1)">
       <use xlink:href="#DejaVuSans-31"/>
       <use xlink:href="#DejaVuSans-35" x="63.623047"/>
       <use xlink:href="#DejaVuSans-30" x="127.246094"/>
       <use xlink:href="#DejaVuSans-30" x="190.869141"/>
      </g>
     </g>
    </g>
    <g id="ytick_5">
     <g id="line2d_12">
      <g>
       <use xlink:href="#m2711052284" x="57.44" y="89.673619" style="stroke: #000000; stroke-width: 0.8"/>
      </g>
     </g>
     <g id="text_13">
      <!-- 2000 -->
      <g transform="translate(24.99 93.472838)scale(0.1 -0.1)">
       <use xlink:href="#DejaVuSans-32"/>
       <use xlink:href="#DejaVuSans-30" x="63.623047"/>
       <use xlink:href="#DejaVuSans-30" x="127.246094"/>
       <use xlink:href="#DejaVuSans-30" x="190.869141"/>
      </g>
     </g>
    </g>
    <g id="ytick_6">
     <g id="line2d_13">
      <g>
       <use xlink:href="#m2711052284" x="57.44" y="48.463881" style="stroke: #000000; stroke-width: 0.8"/>
      </g>
     </g>
     <g id="text_14">
      <!-- 2500 -->
      <g transform="translate(24.99 52.263099)scale(0.1 -0.1)">
       <use xlink:href="#DejaVuSans-32"/>
       <use xlink:href="#DejaVuSans-35" x="63.623047"/>
       <use xlink:href="#DejaVuSans-30" x="127.246094"/>
       <use xlink:href="#DejaVuSans-30" x="190.869141"/>
      </g>
     </g>
    </g>
    <g id="text_15">
     <!-- Frequency -->
     <g transform="translate(18.910312 165.805973)rotate(-90)scale(0.1 -0.1)">
      <defs>
       <path id="DejaVuSans-71" d="M 947 1747 
Q 947 1113 1208 752 
Q 1469 391 1925 391 
Q 2381 391 2643 752 
Q 2906 1113 2906 1747 
Q 2906 2381 2643 2742 
Q 2381 3103 1925 3103 
Q 1469 3103 1208 2742 
Q 947 2381 947 1747 
z
M 2906 525 
Q 2725 213 2448 61 
Q 2172 -91 1784 -91 
Q 1150 -91 751 415 
Q 353 922 353 1747 
Q 353 2572 751 3078 
Q 1150 3584 1784 3584 
Q 2172 3584 2448 3432 
Q 2725 3281 2906 2969 
L 2906 3500 
L 3481 3500 
L 3481 -1331 
L 2906 -1331 
L 2906 525 
z
" transform="scale(0.015625)"/>
      </defs>
      <use xlink:href="#DejaVuSans-46"/>
      <use xlink:href="#DejaVuSans-72" x="50.269531"/>
      <use xlink:href="#DejaVuSans-65" x="89.132812"/>
      <use xlink:href="#DejaVuSans-71" x="150.65625"/>
      <use xlink:href="#DejaVuSans-75" x="214.132812"/>
      <use xlink:href="#DejaVuSans-65" x="277.511719"/>
      <use xlink:href="#DejaVuSans-6e" x="339.035156"/>
      <use xlink:href="#DejaVuSans-63" x="402.414062"/>
      <use xlink:href="#DejaVuSans-79" x="457.394531"/>
     </g>
    </g>
   </g>
   <g id="patch_10">
    <path d="M 57.44 254.512572 
L 57.44 25.44 
" style="fill: none; stroke: #000000; stroke-width: 0.8; stroke-linejoin: miter; stroke-linecap: square"/>
   </g>
   <g id="patch_11">
    <path d="M 709.2 254.512572 
L 709.2 25.44 
" style="fill: none; stroke: #000000; stroke-width: 0.8; stroke-linejoin: miter; stroke-linecap: square"/>
   </g>
   <g id="patch_12">
    <path d="M 57.44 254.512572 
L 709.2 254.512572 
" style="fill: none; stroke: #000000; stroke-width: 0.8; stroke-linejoin: miter; stroke-linecap: square"/>
   </g>
   <g id="patch_13">
    <path d="M 57.44 25.44 
L 709.2 25.44 
" style="fill: none; stroke: #000000; stroke-width: 0.8; stroke-linejoin: miter; stroke-linecap: square"/>
   </g>
   <g id="text_16">
    <!-- News Frequency by Industry -->
    <g transform="translate(298.350625 19.44)scale(0.12 -0.12)">
     <defs>
      <path id="DejaVuSans-4e" d="M 628 4666 
L 1478 4666 
L 3547 763 
L 3547 4666 
L 4159 4666 
L 4159 0 
L 3309 0 
L 1241 3903 
L 1241 0 
L 628 0 
L 628 4666 
z
" transform="scale(0.015625)"/>
      <path id="DejaVuSans-77" d="M 269 3500 
L 844 3500 
L 1563 769 
L 2278 3500 
L 2956 3500 
L 3675 769 
L 4391 3500 
L 4966 3500 
L 4050 0 
L 3372 0 
L 2619 2869 
L 1863 0 
L 1184 0 
L 269 3500 
z
" transform="scale(0.015625)"/>
      <path id="DejaVuSans-62" d="M 3116 1747 
Q 3116 2381 2855 2742 
Q 2594 3103 2138 3103 
Q 1681 3103 1420 2742 
Q 1159 2381 1159 1747 
Q 1159 1113 1420 752 
Q 1681 391 2138 391 
Q 2594 391 2855 752 
Q 3116 1113 3116 1747 
z
M 1159 2969 
Q 1341 3281 1617 3432 
Q 1894 3584 2278 3584 
Q 2916 3584 3314 3078 
Q 3713 2572 3713 1747 
Q 3713 922 3314 415 
Q 2916 -91 2278 -91 
Q 1894 -91 1617 61 
Q 1341 213 1159 525 
L 1159 0 
L 581 0 
L 581 4863 
L 1159 4863 
L 1159 2969 
z
" transform="scale(0.015625)"/>
     </defs>
     <use xlink:href="#DejaVuSans-4e"/>
     <use xlink:href="#DejaVuSans-65" x="74.804688"/>
     <use xlink:href="#DejaVuSans-77" x="136.328125"/>
     <use xlink:href="#DejaVuSans-73" x="218.115234"/>
     <use xlink:href="#DejaVuSans-20" x="270.214844"/>
     <use xlink:href="#DejaVuSans-46" x="302.001953"/>
     <use xlink:href="#DejaVuSans-72" x="352.271484"/>
     <use xlink:href="#DejaVuSans-65" x="391.134766"/>
     <use xlink:href="#DejaVuSans-71" x="452.658203"/>
     <use xlink:href="#DejaVuSans-75" x="516.134766"/>
     <use xlink:href="#DejaVuSans-65" x="579.513672"/>
     <use xlink:href="#DejaVuSans-6e" x="641.037109"/>
     <use xlink:href="#DejaVuSans-63" x="704.416016"/>
     <use xlink:href="#DejaVuSans-79" x="759.396484"/>
     <use xlink:href="#DejaVuSans-20" x="818.576172"/>
     <use xlink:href="#DejaVuSans-62" x="850.363281"/>
     <use xlink:href="#DejaVuSans-79" x="913.839844"/>
     <use xlink:href="#DejaVuSans-20" x="973.019531"/>
     <use xlink:href="#DejaVuSans-49" x="1004.806641"/>
     <use xlink:href="#DejaVuSans-6e" x="1034.298828"/>
     <use xlink:href="#DejaVuSans-64" x="1097.677734"/>
     <use xlink:href="#DejaVuSans-75" x="1161.154297"/>
     <use xlink:href="#DejaVuSans-73" x="1224.533203"/>
     <use xlink:href="#DejaVuSans-74" x="1276.632812"/>
     <use xlink:href="#DejaVuSans-72" x="1315.841797"/>
     <use xlink:href="#DejaVuSans-79" x="1356.955078"/>
    </g>
   </g>
  </g>
 </g>
 <defs>
  <clipPath id="p6f467a1b4d">
   <rect x="57.44" y="25.44" width="651.76" height="229.072572"/>
  </clipPath>
 </defs>
</svg>
